<?xml version="1.0" encoding="UTF-8"?>
<svg width="32px" height="16px" viewBox="0 0 32 16" version="1.1" xmlns="http://www.w3.org/2000/svg" xmlns:xlink="http://www.w3.org/1999/xlink">
    <!-- Generator: Sketch 47.1 (45422) - http://www.bohemiancoding.com/sketch -->
    <title>ic_nuLogoLeftNav</title>
    <desc>Created with Sketch.</desc>
    <defs></defs>
    <g id="Symbols" stroke="none" stroke-width="1" fill="none" fill-rule="evenodd">
        <g id="LeftNav_receivables" transform="translate(-40.000000, -23.000000)" fill="#26C3ED">
            <g id="nu_inapp_logo">
                <g transform="translate(32.000000, 5.000000)">
                    <g id="Group-32">
                        <g transform="translate(8.000000, 18.000000)" fill-rule="nonzero">
                            <path d="M4.31609756,1.78076098 C4.68214634,1.26439024 5.52226341,0.014204878 7.97923902,0.014204878 C9.74579512,0.014204878 10.6286829,0.70337561 10.9945756,1.04835122 C12.0510439,2.08265366 12.1152,3.56917073 12.1152,4.4097561 L12.1152,11.4555317 L7.67750244,11.4555317 L7.67750244,5.35758049 C7.67750244,4.79781463 7.65518049,3.67703415 6.16819512,3.67703415 C4.59566829,3.67703415 4.55305366,4.90520976 4.55305366,5.50852683 L4.55305366,11.4555317 L0.114887805,11.4555317 L0.114887805,0.294243902 L4.31609756,0.294243902 L4.31609756,1.78076098 Z" id="Shape"></path>
                            <path d="M18.1252683,0.294243902 L18.1252683,6.37034146 C18.1252683,7.03859512 18.1466537,8.17966829 19.719961,8.17966829 C21.2928,8.17966829 21.3137171,6.95164878 21.3352585,6.19754146 L21.3352585,0.294087805 L25.7957463,0.294087805 L25.7957463,11.4553756 L21.5725268,11.4553756 L21.5725268,9.81697561 C21.4211122,10.1410341 21.3352585,10.3342829 21.0133854,10.6364878 C20.1937171,11.433522 19.0300098,11.7349463 17.888,11.7349463 C16.1219122,11.713561 15.1946927,11.0457756 14.8072585,10.6364878 C13.7303415,9.58017561 13.7084878,8.13674146 13.6871024,7.08074146 L13.6871024,0.294243902 L18.1252683,0.294243902 Z" id="Shape"></path>
                            <path d="M28.0128,7.40433171 L31.9345951,7.40433171 L31.9345951,10.507239 C31.9128976,11.7351024 31.8915122,13.0066732 30.8350439,14.0843707 C29.9730732,14.9458732 29.0043317,15.0966634 28.0128,15.2689951 L28.0128,13.372722 C29.3057561,12.9629659 29.3274537,12.1451707 29.3494634,11.4555317 L28.0128,11.4555317 L28.0128,7.40433171 L28.0128,7.40433171 Z" id="Shape"></path>
                        </g>
                    </g>
                </g>
            </g>
        </g>
    </g>
</svg>